<svg width="1200" height="760" viewBox="0 0 1200 760" fill="none" xmlns="http://www.w3.org/2000/svg">
  <defs>
    <linearGradient id="page" x1="0" y1="0" x2="1200" y2="760" gradientUnits="userSpaceOnUse">
      <stop stop-color="#D7EFE7"/>
      <stop offset="1" stop-color="#EAF8F2"/>
    </linearGradient>
    <linearGradient id="hero" x1="290" y1="110" x2="870" y2="290" gradientUnits="userSpaceOnUse">
      <stop stop-color="#0C7D65"/>
      <stop offset="1" stop-color="#37B28D"/>
    </linearGradient>
  </defs>

  <rect width="1200" height="760" rx="0" fill="url(#page)"/>

  <rect x="210" y="50" width="780" height="660" rx="34" fill="#F6FFFB"/>
  <rect x="210" y="50" width="780" height="660" rx="34" stroke="#CFE7DE" stroke-width="2"/>

  <rect x="246" y="88" width="708" height="172" rx="24" fill="url(#hero)"/>
  <text x="278" y="170" fill="#FFFFFF" font-family="Arial, sans-serif" font-size="56" font-weight="300">12:41:09</text>
  <text x="278" y="205" fill="#E8FFF6" font-family="Arial, sans-serif" font-size="24" font-weight="600">Menuju Berbuka</text>
  <text x="278" y="235" fill="#D7F6EC" font-family="Arial, sans-serif" font-size="18" font-weight="400">Surabaya, Indonesia • Target 17:52</text>

  <circle cx="900" cy="146" r="30" fill="#FFFFFF" fill-opacity="0.26"/>
  <path d="M900 132V160" stroke="white" stroke-width="4" stroke-linecap="round"/>
  <path d="M886 146H914" stroke="white" stroke-width="4" stroke-linecap="round"/>

  <rect x="246" y="282" width="708" height="206" rx="22" fill="white"/>
  <rect x="246" y="282" width="708" height="206" rx="22" stroke="#D6EBE3"/>

  <text x="278" y="332" fill="#215A4B" font-family="Arial, sans-serif" font-size="30" font-weight="600">Jadwal Hari Ini</text>
  <rect x="736" y="306" width="184" height="44" rx="22" fill="#1D9E7A"/>
  <text x="762" y="335" fill="white" font-family="Arial, sans-serif" font-size="24" font-weight="600">5j 11m lagi</text>

  <text x="278" y="382" fill="#1E4F42" font-family="Arial, sans-serif" font-size="36" font-weight="600">Imsak</text>
  <rect x="800" y="352" width="120" height="50" rx="25" fill="#E8F4F0"/>
  <text x="835" y="387" fill="#40635A" font-family="Arial, sans-serif" font-size="30" font-weight="600">04:04</text>

  <text x="278" y="438" fill="#1E4F42" font-family="Arial, sans-serif" font-size="36" font-weight="600">Sahur (Subuh)</text>
  <rect x="800" y="408" width="120" height="50" rx="25" fill="#E8F4F0"/>
  <text x="835" y="443" fill="#40635A" font-family="Arial, sans-serif" font-size="30" font-weight="600">04:14</text>

  <text x="278" y="494" fill="#1E4F42" font-family="Arial, sans-serif" font-size="36" font-weight="600">Berbuka (Maghrib)</text>
  <rect x="792" y="462" width="128" height="52" rx="26" fill="#1D9E7A"/>
  <text x="828" y="497" fill="white" font-family="Arial, sans-serif" font-size="30" font-weight="700">17:52</text>

  <rect x="246" y="512" width="708" height="166" rx="22" fill="white"/>
  <rect x="246" y="512" width="708" height="166" rx="22" stroke="#D6EBE3"/>
  <text x="278" y="558" fill="#215A4B" font-family="Arial, sans-serif" font-size="30" font-weight="600">Pengaturan</text>

  <rect x="278" y="578" width="642" height="36" rx="12" fill="#F2FBF7" stroke="#D3E8E0"/>
  <rect x="278" y="624" width="642" height="36" rx="12" fill="#F2FBF7" stroke="#D3E8E0"/>
</svg>
