<svg width="512" height="512" viewBox="0 0 512 512" fill="none" xmlns="http://www.w3.org/2000/svg">
  <defs>
    <linearGradient id="bg" x1="64" y1="48" x2="462" y2="464" gradientUnits="userSpaceOnUse">
      <stop stop-color="#0B7A63"/>
      <stop offset="1" stop-color="#39B58F"/>
    </linearGradient>
    <linearGradient id="glow" x1="140" y1="160" x2="388" y2="360" gradientUnits="userSpaceOnUse">
      <stop stop-color="#FFFFFF" stop-opacity="0.28"/>
      <stop offset="1" stop-color="#FFFFFF" stop-opacity="0.02"/>
    </linearGradient>
  </defs>

  <rect x="32" y="32" width="448" height="448" rx="120" fill="url(#bg)"/>
  <rect x="32" y="32" width="448" height="448" rx="120" stroke="#FFFFFF" stroke-opacity="0.25" stroke-width="2"/>

  <circle cx="256" cy="256" r="150" fill="url(#glow)"/>

  <circle cx="236" cy="224" r="86" fill="#F2FFFA"/>
  <circle cx="270" cy="210" r="74" fill="url(#bg)"/>

  <circle cx="330" cy="176" r="10" fill="#F2FFFA"/>
  <circle cx="356" cy="206" r="7" fill="#F2FFFA" fill-opacity="0.92"/>
  <circle cx="316" cy="146" r="6" fill="#F2FFFA" fill-opacity="0.92"/>

  <path d="M112 346C112 340.477 116.477 336 122 336H390C395.523 336 400 340.477 400 346V352H112V346Z" fill="#EFFFF8" fill-opacity="0.55"/>
  <path d="M176 336C176 313.909 193.909 296 216 296H296C318.091 296 336 313.909 336 336H176Z" fill="#EFFFF8" fill-opacity="0.75"/>
</svg>
